<svg width="24" height="24" viewBox="0 0 24 24" fill="none" xmlns="http://www.w3.org/2000/svg">
<path d="M12.7 11.2L11.25 9.775C11.0667 9.59167 10.8375 9.5 10.5625 9.5C10.2875 9.5 10.05 9.6 9.85 9.8C9.66667 9.98333 9.575 10.2167 9.575 10.5C9.575 10.7833 9.66667 11.0167 9.85 11.2L12 13.35C12.2 13.55 12.4333 13.65 12.7 13.65C12.9667 13.65 13.2 13.55 13.4 13.35L17.65 9.1C17.85 8.9 17.9458 8.66667 17.9375 8.4C17.9292 8.13333 17.8333 7.9 17.65 7.7C17.45 7.5 17.2125 7.39583 16.9375 7.3875C16.6625 7.37917 16.425 7.475 16.225 7.675L12.7 11.2ZM8 18C7.45 18 6.97917 17.8042 6.5875 17.4125C6.19583 17.0208 6 16.55 6 16V4C6 3.45 6.19583 2.97917 6.5875 2.5875C6.97917 2.19583 7.45 2 8 2H20C20.55 2 21.0208 2.19583 21.4125 2.5875C21.8042 2.97917 22 3.45 22 4V16C22 16.55 21.8042 17.0208 21.4125 17.4125C21.0208 17.8042 20.55 18 20 18H8ZM8 16H20V4H8V16ZM4 22C3.45 22 2.97917 21.8042 2.5875 21.4125C2.19583 21.0208 2 20.55 2 20V7C2 6.71667 2.09583 6.47917 2.2875 6.2875C2.47917 6.09583 2.71667 6 3 6C3.28333 6 3.52083 6.09583 3.7125 6.2875C3.90417 6.47917 4 6.71667 4 7V20H17C17.2833 20 17.5208 20.0958 17.7125 20.2875C17.9042 20.4792 18 20.7167 18 21C18 21.2833 17.9042 21.5208 17.7125 21.7125C17.5208 21.9042 17.2833 22 17 22H4Z" fill="#FF8442"/>
</svg>
