<svg width="39" height="39" viewBox="0 0 39 39" fill="none" xmlns="http://www.w3.org/2000/svg">
<circle cx="19.1407" cy="19.1407" r="19.1407" fill="#F9F4D3"/>
<circle cx="23.8325" cy="18.5584" r="3.72441" fill="white"/>
<circle cx="24.7937" cy="17.8378" r="1.92228" fill="#333333"/>
<circle cx="16.9845" cy="18.5584" r="3.72441" fill="white"/>
<circle cx="18.1859" cy="17.8378" r="1.92228" fill="#333333"/>
<path d="M21.8148 23.4478C21.8148 23.712 21.3863 23.9263 20.8578 23.9263C20.3292 23.9263 19.9007 23.712 19.9007 23.4478" stroke="#96582D" stroke-width="0.957037" stroke-linecap="round"/>
<ellipse cx="19.6615" cy="27.9932" rx="11.2452" ry="2.15333" fill="#F1DEBE"/>
<g filter="url(#filter0_i_12202_77072)">
<path d="M31.3564 20.9529C31.0052 27.0362 25.6039 28.3596 18.85 28.3596C12.0962 28.3596 6.36145 26.7456 6.36145 20.9529C6.36145 13.2916 12.6287 8.85254 19.3826 8.85254C27.5632 8.85254 31.6402 16.0385 31.3564 20.9529Z" fill="#FFB951"/>
</g>
<circle cx="22.4832" cy="20.1144" r="3.97716" fill="white"/>
<circle cx="23.5096" cy="19.3447" r="2.05273" fill="#333333"/>
<circle cx="15.1705" cy="20.1144" r="3.97716" fill="white"/>
<circle cx="16.4534" cy="19.3447" r="2.05273" fill="#333333"/>
<path d="M19.5694 24.3687C19.5694 24.7275 19.2162 25.0184 18.7805 25.0184C18.3447 25.0184 17.9915 24.7275 17.9915 24.3687" stroke="#78431D" stroke-width="0.478518" stroke-linecap="round"/>
<defs>
<filter id="filter0_i_12202_77072" x="6.36145" y="8.85254" width="25.0088" height="19.5073" filterUnits="userSpaceOnUse" color-interpolation-filters="sRGB">
<feFlood flood-opacity="0" result="BackgroundImageFix"/>
<feBlend mode="normal" in="SourceGraphic" in2="BackgroundImageFix" result="shape"/>
<feColorMatrix in="SourceAlpha" type="matrix" values="0 0 0 0 0 0 0 0 0 0 0 0 0 0 0 0 0 0 127 0" result="hardAlpha"/>
<feOffset dx="-2.87111" dy="-0.957037"/>
<feComposite in2="hardAlpha" operator="arithmetic" k2="-1" k3="1"/>
<feColorMatrix type="matrix" values="0 0 0 0 0.957692 0 0 0 0 0.508406 0 0 0 0 0.3002 0 0 0 0.36 0"/>
<feBlend mode="normal" in2="shape" result="effect1_innerShadow_12202_77072"/>
</filter>
</defs>
</svg>
