<svg width="39" height="39" viewBox="0 0 39 39" fill="none" xmlns="http://www.w3.org/2000/svg">
<circle cx="19.1407" cy="19.1407" r="19.1407" fill="#FFE3E3"/>
<circle cx="23.8325" cy="18.5584" r="3.72441" fill="white"/>
<circle cx="24.7937" cy="17.8378" r="1.92228" fill="#333333"/>
<circle cx="16.9845" cy="18.5584" r="3.72441" fill="white"/>
<circle cx="18.1859" cy="17.8378" r="1.92228" fill="#333333"/>
<path d="M21.8148 23.4478C21.8148 23.712 21.3863 23.9263 20.8578 23.9263C20.3292 23.9263 19.9007 23.712 19.9007 23.4478" stroke="#96582D" stroke-width="0.957037" stroke-linecap="round"/>
<ellipse cx="19.6615" cy="27.9932" rx="11.2452" ry="2.15333" fill="#F1BEBE"/>
<g filter="url(#filter0_i_12202_77092)">
<path d="M31.3564 20.9529C31.0052 27.0362 25.6039 28.3596 18.85 28.3596C12.0962 28.3596 6.36145 26.7456 6.36145 20.9529C6.36145 13.2916 12.6287 8.85254 19.3826 8.85254C27.5632 8.85254 31.6402 16.0385 31.3564 20.9529Z" fill="#FF9494"/>
</g>
<circle cx="22.4832" cy="20.1144" r="3.97716" fill="white"/>
<circle cx="15.1705" cy="20.1144" r="3.97716" fill="white"/>
<path d="M23.2815 19L20.2815 20.5L23.2815 22" stroke="black" stroke-width="0.7" stroke-linecap="round" stroke-linejoin="round"/>
<path d="M14.2815 19L17.2815 20.5L14.2815 22" stroke="black" stroke-width="0.7" stroke-linecap="round" stroke-linejoin="round"/>
<path d="M20.7815 20.5H23.7815M16.7815 20.5C16.7815 20.5 14.7578 20.634 13.7815 20.634" stroke="black" stroke-width="0.6" stroke-linecap="round" stroke-linejoin="round"/>
<path d="M21.2815 24C21.2815 25.1046 20.386 26 19.2815 26C18.1769 26 17.2815 25.1046 17.2815 24H21.2815Z" fill="#78431D"/>
<defs>
<filter id="filter0_i_12202_77092" x="6.36145" y="8.85254" width="25.0088" height="19.5073" filterUnits="userSpaceOnUse" color-interpolation-filters="sRGB">
<feFlood flood-opacity="0" result="BackgroundImageFix"/>
<feBlend mode="normal" in="SourceGraphic" in2="BackgroundImageFix" result="shape"/>
<feColorMatrix in="SourceAlpha" type="matrix" values="0 0 0 0 0 0 0 0 0 0 0 0 0 0 0 0 0 0 127 0" result="hardAlpha"/>
<feOffset dx="-2.87111" dy="-0.957037"/>
<feComposite in2="hardAlpha" operator="arithmetic" k2="-1" k3="1"/>
<feColorMatrix type="matrix" values="0 0 0 0 0.957692 0 0 0 0 0.3002 0 0 0 0 0.3002 0 0 0 0.36 0"/>
<feBlend mode="normal" in2="shape" result="effect1_innerShadow_12202_77092"/>
</filter>
</defs>
</svg>
