<svg width="32" height="32" viewBox="0 0 32 32" fill="none" xmlns="http://www.w3.org/2000/svg">
<rect width="32" height="32" rx="8" fill="#C0E8E4"/>
<path d="M22.8928 16.6782C23.3077 16.6782 23.6476 17.0152 23.6102 17.4285C23.4852 18.8096 23.0164 20.142 22.2416 21.3017C21.3271 22.6702 20.0274 23.7369 18.5067 24.3667C16.9861 24.9966 15.3128 25.1614 13.6985 24.8403C12.0842 24.5192 10.6013 23.7266 9.43747 22.5627C8.27361 21.3989 7.48102 19.916 7.15991 18.3017C6.8388 16.6874 7.00361 15.0141 7.63348 13.4935C8.26336 11.9728 9.33001 10.6731 10.6986 9.75866C11.8583 8.98378 13.1906 8.51505 14.5717 8.39003C14.985 8.35262 15.322 8.69251 15.322 9.10744V15.9269C15.322 16.3418 15.6584 16.6782 16.0733 16.6782H22.8928Z" fill="#00D4BE"/>
<path d="M9.96872 22.0315C9.67532 22.3249 9.19665 22.3269 8.9309 22.0082C8.04267 20.9432 7.43201 19.6697 7.15991 18.3017C6.8388 16.6874 7.00361 15.0141 7.63348 13.4935C8.26336 11.9728 9.33001 10.6731 10.6986 9.75866C11.8583 8.98378 13.1906 8.51505 14.5717 8.39003C14.985 8.35262 15.322 8.69251 15.322 9.10744V16.367C15.322 16.5662 15.2429 16.7573 15.102 16.8982L9.96872 22.0315Z" fill="#00B4BD"/>
<path d="M16.709 7.72022C16.709 7.3053 17.046 6.96541 17.4593 7.00282C18.2949 7.07847 19.1158 7.2802 19.8937 7.60241C20.9034 8.02063 21.8208 8.63363 22.5936 9.4064C23.3663 10.1792 23.9793 11.0966 24.3975 12.1063C24.7197 12.8841 24.9215 13.705 24.9971 14.5407C25.0345 14.9539 24.6947 15.291 24.2797 15.291L17.4603 15.291C17.0453 15.291 16.709 14.9546 16.709 14.5397V7.72022Z" fill="#008FBA"/>
</svg>
