<svg viewBox="0 0 32 32" fill="none" xmlns="http://www.w3.org/2000/svg">
<rect width="32" height="32" rx="8" fill="#FFD0AA"/>
<path d="M8 8.99989C8 8.11624 8.71634 7.3999 9.6 7.3999H22.4C23.2837 7.3999 24 8.11624 24 8.99989V24.1998C24 25.0835 23.2837 25.7998 22.4 25.7998H9.6C8.71634 25.7998 8 25.0835 8 24.1998V8.99989Z" fill="url(#paint0_linear_11441_27580)"/>
<path d="M9.60004 9.8C9.60004 9.35817 9.95821 9 10.4 9H21.6C22.0419 9 22.4 9.35817 22.4 9.8V23.3999C22.4 23.8417 22.0419 24.1999 21.6 24.1999H10.4C9.95821 24.1999 9.60004 23.8417 9.60004 23.3999V9.8Z" fill="white"/>
<path d="M12 7.3999H20V10.5999C20 11.0417 19.6418 11.3999 19.2 11.3999H12.8C12.3582 11.3999 12 11.0417 12 10.5999V7.3999Z" fill="#F36A47"/>
<path d="M18.4 7.39999C18.4 8.72546 17.3255 9.79997 16 9.79997C14.6746 9.79997 13.6 8.72546 13.6 7.39999C13.6 6.07451 14.6746 5 16 5C17.3255 5 18.4 6.07451 18.4 7.39999Z" fill="#F36A47"/>
<path d="M16.8 7.40009C16.8 7.84192 16.4418 8.20009 16 8.20009C15.5582 8.20009 15.2 7.84192 15.2 7.40009C15.2 6.95827 15.5582 6.6001 16 6.6001C16.4418 6.6001 16.8 6.95827 16.8 7.40009Z" fill="#FFD19B"/>
<path d="M12 16.1997H20V17.7997H12V16.1997Z" fill="#D9D9D9"/>
<path d="M12 13H20V14.6H12V13Z" fill="#D9D9D9"/>
<path d="M12 19.3999H20V20.9999H12V19.3999Z" fill="#D9D9D9"/>
<defs>
<linearGradient id="paint0_linear_11441_27580" x1="16" y1="7.3999" x2="16" y2="25.7998" gradientUnits="userSpaceOnUse">
<stop stop-color="#FF8442"/>
<stop offset="1" stop-color="#FFA845"/>
</linearGradient>
</defs>
</svg>
