<svg width="17" height="17" viewBox="0 0 17 17" fill="none" xmlns="http://www.w3.org/2000/svg">
<path d="M3.54167 15.5832C3.15208 15.5832 2.81858 15.4445 2.54115 15.167C2.26372 14.8896 2.125 14.5561 2.125 14.1665V4.24984C2.125 3.86025 2.26372 3.52675 2.54115 3.24932C2.81858 2.97189 3.15208 2.83317 3.54167 2.83317H4.25V2.12484C4.25 1.92414 4.31788 1.75591 4.45365 1.62015C4.58941 1.48439 4.75764 1.4165 4.95833 1.4165C5.15903 1.4165 5.32726 1.48439 5.46302 1.62015C5.59878 1.75591 5.66667 1.92414 5.66667 2.12484V2.83317H11.3333V2.12484C11.3333 1.92414 11.4012 1.75591 11.537 1.62015C11.6727 1.48439 11.841 1.4165 12.0417 1.4165C12.2424 1.4165 12.4106 1.48439 12.5464 1.62015C12.6821 1.75591 12.75 1.92414 12.75 2.12484V2.83317H13.4583C13.8479 2.83317 14.1814 2.97189 14.4589 3.24932C14.7363 3.52675 14.875 3.86025 14.875 4.24984V14.1665C14.875 14.5561 14.7363 14.8896 14.4589 15.167C14.1814 15.4445 13.8479 15.5832 13.4583 15.5832H3.54167ZM3.54167 14.1665H13.4583V7.08317H3.54167V14.1665ZM3.54167 5.6665H13.4583V4.24984H3.54167V5.6665Z" fill="#A4A4A4"/>
</svg>
