<svg width="131" height="140" viewBox="0 0 131 140" fill="none" xmlns="http://www.w3.org/2000/svg">
<ellipse cx="64.9623" cy="129.523" rx="49.922" ry="10.4775" fill="#4C1200" fill-opacity="0.05"/>
<g filter="url(#filter0_i_12202_81334)">
<path d="M115.778 82.8853C107.345 108.376 81.3534 111.252 52.6086 103.55C23.8637 95.8481 2.79172 79.0349 9.39774 54.3809C18.1348 21.7736 46.6079 6.06697 78.5405 14.6224C115.781 24.6 122.59 62.2927 115.778 82.8853Z" fill="#FBEFDB"/>
</g>
<circle cx="78.6433" cy="69.0572" r="17.522" transform="rotate(15 78.6433 69.0572)" fill="white"/>
<circle cx="85.4186" cy="66.2361" r="9.04469" transform="rotate(15 85.4186 66.2361)" fill="#A19993"/>
<circle cx="88.6846" cy="63.4699" r="2.68206" transform="rotate(15 88.6846 63.4699)" fill="#BDB5A8"/>
<circle cx="47.8461" cy="60.8581" r="17.5241" transform="rotate(15 47.8461 60.8581)" fill="white"/>
<circle cx="54.2523" cy="58.1936" r="9.04469" transform="rotate(15 54.2523 58.1936)" fill="#A19993"/>
<circle cx="58.5238" cy="55.4279" r="2.68206" transform="rotate(15 58.5238 55.4279)" fill="#BDB5A8"/>
<ellipse cx="60.3553" cy="81.8495" rx="4.31425" ry="2.59491" transform="rotate(87.689 60.3553 81.8495)" fill="#CBBCA5"/>
<g filter="url(#filter1_i_12202_81334)">
<circle cx="33.5535" cy="98.0358" r="11.0938" transform="rotate(15 33.5535 98.0358)" fill="#E5D3C3"/>
</g>
<defs>
<filter id="filter0_i_12202_81334" x="8.17883" y="12.3179" width="109.938" height="94.9868" filterUnits="userSpaceOnUse" color-interpolation-filters="sRGB">
<feFlood flood-opacity="0" result="BackgroundImageFix"/>
<feBlend mode="normal" in="SourceGraphic" in2="BackgroundImageFix" result="shape"/>
<feColorMatrix in="SourceAlpha" type="matrix" values="0 0 0 0 0 0 0 0 0 0 0 0 0 0 0 0 0 0 127 0" result="hardAlpha"/>
<feOffset dx="-11" dy="-6"/>
<feComposite in2="hardAlpha" operator="arithmetic" k2="-1" k3="1"/>
<feColorMatrix type="matrix" values="0 0 0 0 0.888461 0 0 0 0 0.796198 0 0 0 0 0.657803 0 0 0 0.22 0"/>
<feBlend mode="normal" in2="shape" result="effect1_innerShadow_12202_81334"/>
</filter>
<filter id="filter1_i_12202_81334" x="22.4569" y="86.9395" width="22.1931" height="22.1929" filterUnits="userSpaceOnUse" color-interpolation-filters="sRGB">
<feFlood flood-opacity="0" result="BackgroundImageFix"/>
<feBlend mode="normal" in="SourceGraphic" in2="BackgroundImageFix" result="shape"/>
<feColorMatrix in="SourceAlpha" type="matrix" values="0 0 0 0 0 0 0 0 0 0 0 0 0 0 0 0 0 0 127 0" result="hardAlpha"/>
<feOffset dx="-4" dy="-4"/>
<feComposite in2="hardAlpha" operator="arithmetic" k2="-1" k3="1"/>
<feColorMatrix type="matrix" values="0 0 0 0 0 0 0 0 0 0 0 0 0 0 0 0 0 0 0.05 0"/>
<feBlend mode="normal" in2="shape" result="effect1_innerShadow_12202_81334"/>
</filter>
</defs>
</svg>
