<svg width="32" height="32" viewBox="0 0 32 32" fill="none" xmlns="http://www.w3.org/2000/svg">
<rect width="32" height="32" rx="8" fill="#C7F2EB"/>
<path d="M9 9.33339C9 8.47428 9.69645 7.77783 10.5556 7.77783H21.4444C22.3036 7.77783 23 8.47428 23 9.33339V23.3334C23 24.1925 22.3036 24.8889 21.4444 24.8889H10.5556C9.69645 24.8889 9 24.1925 9 23.3334V9.33339Z" fill="url(#paint0_linear_11441_27603)"/>
<path d="M9 9.33339C9 8.47428 9.69645 7.77783 10.5556 7.77783H21.4444C22.3036 7.77783 23 8.47428 23 9.33339V11.6667H9V9.33339Z" fill="white"/>
<path d="M11.3334 14H20.6667V15.5556H11.3334V14Z" fill="#0E959D"/>
<path d="M11.3334 17.1113H20.6667V18.6669H11.3334V17.1113Z" fill="#0E959D"/>
<path d="M11.3334 20.2222H20.6667V21.7777H11.3334V20.2222Z" fill="#0E959D"/>
<path d="M19.8888 7C20.3184 7 20.6666 7.34822 20.6666 7.77778L20.6666 8.55556C20.6666 8.98511 20.3184 9.33333 19.8888 9.33333C19.4593 9.33333 19.1111 8.98511 19.1111 8.55556L19.1111 7.77778C19.1111 7.34822 19.4593 7 19.8888 7Z" fill="#5EBABF"/>
<path d="M16.0001 7C16.4296 7 16.7778 7.34822 16.7778 7.77778L16.7778 8.55556C16.7778 8.98511 16.4296 9.33333 16.0001 9.33333C15.5705 9.33333 15.2223 8.98511 15.2223 8.55556L15.2223 7.77778C15.2223 7.34822 15.5705 7 16.0001 7Z" fill="#5EBABF"/>
<path d="M12.1111 7C12.5407 7 12.8889 7.34822 12.8889 7.77778L12.8889 8.55556C12.8889 8.98511 12.5407 9.33333 12.1111 9.33333C11.6816 9.33333 11.3334 8.98511 11.3334 8.55556L11.3334 7.77778C11.3334 7.34822 11.6816 7 12.1111 7Z" fill="#5EBABF"/>
<defs>
<linearGradient id="paint0_linear_11441_27603" x1="16" y1="7.77783" x2="16" y2="24.8889" gradientUnits="userSpaceOnUse">
<stop stop-color="#8CE6E3"/>
<stop offset="1" stop-color="#09D5C0"/>
</linearGradient>
</defs>
</svg>
