<svg width="32" height="32" viewBox="0 0 32 32" fill="none" xmlns="http://www.w3.org/2000/svg">
<rect width="32" height="32" rx="8" fill="#FFE5B7"/>
<path d="M11.7676 14.1489C12.0157 13.6882 12.4967 13.4009 13.02 13.4009H18.98C19.5033 13.4009 19.9843 13.6882 20.2324 14.1489L24.828 22.6835C25.3383 23.6312 24.6519 24.7803 23.5756 24.7803H8.42442C7.3481 24.7803 6.66172 23.6312 7.17201 22.6835L11.7676 14.1489Z" fill="url(#paint0_linear_11441_27597)"/>
<path d="M18.9954 13.4009H13.0045C12.509 13.4009 12.0492 13.6588 11.7908 14.0816L9.599 17.6682L11.9004 16.5988C12.4705 16.3339 13.1284 16.3339 13.6986 16.5988L15.1009 17.2504C15.671 17.5153 16.3289 17.5153 16.899 17.2504L18.3014 16.5988C18.8715 16.3339 19.5294 16.3339 20.0995 16.5988L22.4009 17.6682L20.2091 14.0816C19.9507 13.6588 19.4909 13.4009 18.9954 13.4009Z" fill="url(#paint1_linear_11441_27597)"/>
<path d="M16 13.4006L14.5776 13.4006L14.5776 9.1333L16 9.1333L16 13.4006Z" fill="#FF8442"/>
<path d="M14.5775 7.71121C14.5775 7.31842 14.8959 7 15.2887 7H20.9304C21.2319 7 21.3967 7.35164 21.2036 7.58326L20.2911 8.67833C20.0713 8.94208 20.0713 9.3252 20.2911 9.58895L21.2036 10.684C21.3967 10.9156 21.2319 11.2673 20.9304 11.2673H15.2887C14.8959 11.2673 14.5775 10.9489 14.5775 10.5561V7.71121Z" fill="#FF8442"/>
<defs>
<linearGradient id="paint0_linear_11441_27597" x1="16" y1="13.4009" x2="16" y2="24.7803" gradientUnits="userSpaceOnUse">
<stop stop-color="#FF9035"/>
<stop offset="1" stop-color="#FFCC34"/>
</linearGradient>
<linearGradient id="paint1_linear_11441_27597" x1="16" y1="13.4009" x2="16" y2="17.6682" gradientUnits="userSpaceOnUse">
<stop stop-color="white"/>
<stop offset="0.653846" stop-color="white"/>
</linearGradient>
</defs>
</svg>
