<svg width="28" height="25" viewBox="0 0 28 25" fill="none" xmlns="http://www.w3.org/2000/svg">
<path d="M8.04903 10.0518C8.39786 9.40398 9.07421 9 9.80997 9H18.19C18.9258 9 19.6021 9.40398 19.951 10.0518L26.4125 22.0518C27.13 23.3843 26.1649 25 24.6516 25H3.34843C1.83508 25 0.870013 23.3843 1.58749 22.0518L8.04903 10.0518Z" fill="url(#paint0_linear_93_4832)"/>
<path d="M18.2117 9H9.78834C9.0916 9 8.44508 9.36259 8.08177 9.9571L5 15L8.23586 13.4965C9.03747 13.124 9.96253 13.124 10.7641 13.4965L12.7359 14.4126C13.5375 14.7851 14.4625 14.7851 15.2641 14.4126L17.2359 13.4965C18.0375 13.124 18.9625 13.124 19.7641 13.4965L23 15L19.9182 9.9571C19.5549 9.36259 18.9084 9 18.2117 9Z" fill="url(#paint1_linear_93_4832)"/>
<line x1="13" y1="3" x2="13" y2="9" stroke="#FF8442" stroke-width="2"/>
<path d="M12 1C12 0.447715 12.4477 0 13 0H20.9325C21.3564 0 21.588 0.494429 21.3166 0.820092L20.0335 2.35982C19.7244 2.73066 19.7244 3.26934 20.0335 3.64018L21.3166 5.17991C21.588 5.50557 21.3564 6 20.9325 6H13C12.4477 6 12 5.55228 12 5V1Z" fill="#FF8442"/>
<defs>
<linearGradient id="paint0_linear_93_4832" x1="14" y1="9" x2="14" y2="25" gradientUnits="userSpaceOnUse">
<stop stop-color="#FF9035"/>
<stop offset="1" stop-color="#FFCC34"/>
</linearGradient>
<linearGradient id="paint1_linear_93_4832" x1="14" y1="9" x2="14" y2="15" gradientUnits="userSpaceOnUse">
<stop stop-color="white"/>
<stop offset="0.653846" stop-color="white"/>
</linearGradient>
</defs>
</svg>
