<svg width="24" height="24" viewBox="0 0 24 24" fill="none" xmlns="http://www.w3.org/2000/svg">
<path d="M21.1538 12.9226C21.7061 12.9226 22.1585 13.3713 22.1087 13.9213C21.9423 15.7597 21.3184 17.5331 20.287 19.0766C19.0699 20.8982 17.3399 22.318 15.3159 23.1564C13.2918 23.9948 11.0646 24.2141 8.91592 23.7867C6.76721 23.3593 4.79349 22.3043 3.24436 20.7552C1.69522 19.2061 0.640245 17.2323 0.21284 15.0836C-0.214566 12.9349 0.00479449 10.7077 0.843181 8.68367C1.68157 6.65963 3.10132 4.92965 4.92291 3.7125C6.4665 2.68111 8.23987 2.05722 10.0783 1.89081C10.6283 1.84102 11.0769 2.29342 11.0769 2.8457V11.9226C11.0769 12.4749 11.5246 12.9226 12.0769 12.9226H21.1538Z" fill="#00D4BE"/>
<path d="M3.95146 20.0481C3.56094 20.4386 2.92381 20.4413 2.57008 20.0171C1.38782 18.5995 0.575016 16.9044 0.21284 15.0836C-0.214566 12.9349 0.00479449 10.7077 0.843181 8.68367C1.68157 6.65963 3.10132 4.92965 4.92291 3.7125C6.4665 2.68111 8.23987 2.05722 10.0783 1.89081C10.6283 1.84102 11.0769 2.29342 11.0769 2.8457V12.5084C11.0769 12.7736 10.9716 13.028 10.784 13.2155L3.95146 20.0481Z" fill="#00B4BD"/>
<path d="M12.9226 0.999999C12.9226 0.447714 13.3712 -0.00468348 13.9213 0.0451085C15.0336 0.145799 16.1262 0.414317 17.1616 0.843181C18.5055 1.39985 19.7266 2.21577 20.7552 3.24436C21.7838 4.27294 22.5997 5.49406 23.1564 6.83797C23.5852 7.87334 23.8538 8.96597 23.9544 10.0783C24.0042 10.6283 23.5518 11.0769 22.9995 11.0769L13.9226 11.0769C13.3703 11.0769 12.9226 10.6292 12.9226 10.0769V0.999999Z" fill="#008FBA"/>
</svg>
