<svg width="160" height="162" viewBox="0 0 160 162" fill="none" xmlns="http://www.w3.org/2000/svg">
<path d="M60.7634 158.409L12.6784 130.609C8.82761 128.378 5.62991 125.176 3.40501 121.322C1.18011 117.467 0.00597171 113.097 0 108.647V53.117C0.00597171 48.6668 1.18011 44.2961 3.40501 40.442C5.62991 36.5879 8.82761 33.3854 12.6784 31.1547L60.7634 3.38988C64.6207 1.16895 68.9937 0 73.4447 0C77.8957 0 82.2687 1.16895 86.126 3.38988L134.217 31.1547C138.068 33.3854 141.265 36.5879 143.49 40.442C145.715 44.2961 146.889 48.6668 146.895 53.117V108.647C146.889 113.097 145.715 117.467 143.49 121.322C141.265 125.176 138.068 128.378 134.217 130.609L86.126 158.409C82.2671 160.625 77.8948 161.791 73.4447 161.791C68.9946 161.791 64.6222 160.625 60.7634 158.409Z" fill="#FFE052"/>
<mask id="mask0_9_1114" style="mask-type:luminance" maskUnits="userSpaceOnUse" x="0" y="0" width="147" height="162">
<path d="M60.7634 158.409L12.6784 130.609C8.82761 128.378 5.62991 125.176 3.40501 121.322C1.18011 117.467 0.00597171 113.097 0 108.647V53.117C0.00597171 48.6668 1.18011 44.2961 3.40501 40.442C5.62991 36.5879 8.82761 33.3854 12.6784 31.1547L60.7634 3.38988C64.6207 1.16895 68.9937 0 73.4447 0C77.8957 0 82.2687 1.16895 86.126 3.38988L134.217 31.1547C138.068 33.3854 141.265 36.5879 143.49 40.442C145.715 44.2961 146.889 48.6668 146.895 53.117V108.647C146.889 113.097 145.715 117.467 143.49 121.322C141.265 125.176 138.068 128.378 134.217 130.609L86.126 158.409C82.2671 160.625 77.8948 161.791 73.4447 161.791C68.9946 161.791 64.6222 160.625 60.7634 158.409Z" fill="white"/>
</mask>
<g mask="url(#mask0_9_1114)">
<path d="M146.895 36.9804C146.895 36.9804 159.127 55.0783 71.3934 82.9301L73.4417 174.847L161.221 124.714L146.895 36.9804Z" fill="#FFCF03"/>
</g>
<mask id="mask1_9_1114" style="mask-type:luminance" maskUnits="userSpaceOnUse" x="0" y="0" width="147" height="162">
<path d="M60.7634 158.409L12.6784 130.609C8.82761 128.378 5.62991 125.176 3.40501 121.322C1.18011 117.467 0.00597171 113.097 0 108.647V53.117C0.00597171 48.6668 1.18011 44.2961 3.40501 40.442C5.62991 36.5879 8.82761 33.3854 12.6784 31.1547L60.7634 3.38988C64.6207 1.16895 68.9937 0 73.4447 0C77.8957 0 82.2687 1.16895 86.126 3.38988L134.217 31.1547C138.068 33.3854 141.265 36.5879 143.49 40.442C145.715 44.2961 146.889 48.6668 146.895 53.117V108.647C146.889 113.097 145.715 117.467 143.49 121.322C141.265 125.176 138.068 128.378 134.217 130.609L86.126 158.409C82.2671 160.625 77.8948 161.791 73.4447 161.791C68.9946 161.791 64.6222 160.625 60.7634 158.409Z" fill="white"/>
</mask>
<g mask="url(#mask1_9_1114)">
<path d="M73.4417 167.884L71.3935 82.9301C71.3935 82.9301 27.463 72.4856 0.0231447 39.87C-6.89919 31.6885 -14.5933 32.8026 -14.5933 32.8026L-7.28216 141.425L73.4417 167.884Z" fill="#FFC001"/>
</g>
<path d="M54.5663 20.4955C55.5384 18.7531 57.0068 17.3392 58.7847 16.4338C61.8252 14.8904 64.7671 15.9812 67.9758 15.8536C70.616 15.7549 73.0414 14.3391 75.6815 14.1651C78.7741 13.965 81.8777 14.3127 84.8494 15.1921C86.4789 15.6632 87.9361 16.5981 89.0437 17.8828C90.1512 19.1676 90.8611 20.7467 91.0871 22.4278C92.3288 31.7117 81.2229 33.8644 74.521 35.0075C71.6546 35.4949 68.7998 36.139 65.8928 36.168C58.7151 36.2666 51.5375 30.3655 53.7076 22.596C53.9095 21.8643 54.1978 21.1592 54.5663 20.4955Z" fill="#FDC200"/>
<path d="M9.26652 93.9316C12.748 88.0247 21.3995 88.1697 25.8268 92.7711C27.5153 94.5118 27.6197 96.8328 28.5481 98.9565C29.5751 101.277 31.1998 103.314 32.6098 105.426C36.4569 111.229 36.6716 118.958 29.256 121.783C19.9256 125.335 10.2007 117.548 8.31491 108.571C7.45615 104.341 7.03257 97.7612 9.26652 93.9316Z" fill="#FD9F02"/>
<path d="M46.8085 91.303C47.9076 90.1462 49.18 89.1674 50.5801 88.4018C50.9805 88.1813 55.1524 87.1253 55.1524 88.0188C58.5585 89.1793 62.04 90.7228 63.9432 93.9606C66.1771 97.7786 66.0611 102.798 62.8291 106.047C59.5971 109.296 54.8159 109.529 50.9398 107.654C48.0386 106.221 46.089 103.488 44.621 100.691C42.8976 97.3492 44.383 93.8851 46.8085 91.303Z" fill="#FD9F02"/>
<path d="M32.6969 35.1468C30.346 34.9329 27.9858 35.4409 25.9312 36.6032C24.7232 37.2835 23.7133 38.2668 23.0011 39.4563C22.2888 40.6457 21.8988 42.0002 21.8695 43.3863C21.8695 49.1888 27.3528 51.2138 32.1573 51.7941C36.9617 52.3743 42.3232 51.1152 44.3947 46.2527C46.4023 41.5353 44.3483 36.8237 39.6889 34.9263C38.3543 34.3809 37.5536 35.0598 36.3002 35.2687C35.4281 35.3876 34.5439 35.3876 33.6717 35.2687L32.6969 35.1468ZM31.6118 41.1988C30.8691 41.0827 31.1651 40.9725 31.6118 41.1988V41.1988ZM36.9385 44.9878C36.7877 44.9423 36.6403 44.886 36.4975 44.8195L36.9385 44.9878ZM31.4842 45.4056C31.4842 45.4404 31.6002 45.4636 31.7337 45.4868C30.492 48.4751 31.1128 44.8543 31.4842 45.4114V45.4056Z" fill="#FDC100"/>
<path d="M56.4812 55.3974C56.574 55.2581 56.6784 55.1189 56.7829 54.9854C58.8079 52.3743 61.1347 50.0069 64.6974 51.9623L68.8578 54.2833C71.1788 55.5831 72.3393 59.14 70.732 61.4261C69.9327 62.6482 68.8548 63.6632 67.5868 64.3874C66.3188 65.1117 64.897 65.5247 63.4383 65.5923C62.1535 65.6632 60.8688 65.4504 59.6755 64.9691C58.4822 64.4877 57.4094 63.7496 56.5334 62.8071C54.4561 60.4165 54.8216 57.7532 56.4812 55.3974Z" fill="#FFB701"/>
<path d="M101.044 39.1389C99.6109 43.8215 100.557 49.6878 104.218 53.0648C108.048 56.5985 112.574 54.9332 116.983 53.7031C120.494 52.7224 125.159 52.1712 127.851 49.4731C131.565 45.7479 130.033 41.3496 126.639 38.0886C123.796 35.3383 117.703 30.6267 113.49 31.3752C110.16 31.9554 107.154 32.3094 104.833 33.7832C103.197 34.816 101.868 36.4523 101.044 39.1389Z" fill="#FFC000"/>
<path opacity="0.4" d="M72.0144 105.827C72.0144 104.921 71.9737 104.028 71.9041 103.14C72.2639 102.707 72.6507 102.277 73.0646 101.852C82.1107 92.1212 91.8936 83.3711 103.295 75.9497C108.072 72.8512 113.152 70.2479 118.457 68.1802C122.716 66.5091 126.946 64.8322 131.426 63.7239C135.905 62.6157 140.617 62.1225 145.27 61.5654C145.543 61.5306 146.646 60.6951 146.924 60.6835C146.895 61.2285 146.895 61.7747 146.924 62.3198C146.924 62.4184 147.731 63.3526 146.924 62.9348C146.924 63.1263 146.083 62.9 146.089 63.0915C146.103 63.7373 146.165 64.3812 146.274 65.0179V65.5981C145.804 65.7026 145.334 65.8128 144.864 65.9405C131.31 69.567 118.254 75.0562 105.791 81.1139C99.0578 84.4408 92.6925 88.4646 86.799 93.1192C83.1841 95.9276 80.4163 99.3453 77.811 102.85C75.5916 104.814 73.6943 107.115 72.1884 109.668C71.9287 109.988 71.6884 110.323 71.4689 110.672C71.7571 109.07 71.9393 107.452 72.0144 105.827Z" fill="#FD9F02"/>
<path d="M157.229 69.9732C151.868 72.0446 142.578 79.878 143.611 109.389C143.625 109.921 143.501 110.446 143.251 110.915C143 111.384 142.633 111.78 142.184 112.064L77.5963 154.184C75.4088 155.612 72.4379 154.126 72.4379 151.608V108.861C72.4379 108.861 126.093 65.8128 157.038 68.6212C157.199 68.6304 157.351 68.6949 157.47 68.8038C157.588 68.9128 157.665 69.0594 157.688 69.2187C157.71 69.378 157.677 69.5403 157.593 69.6778C157.51 69.8154 157.381 69.9197 157.229 69.9732Z" fill="#FFCF03"/>
<path d="M142.311 63.7877C142.311 63.7877 149.744 60.3063 158.837 67.4723C159.003 67.6201 159.124 67.8127 159.184 68.0271C159.244 68.2416 159.241 68.4688 159.176 68.6817C159.111 68.8946 158.985 69.0842 158.815 69.2278C158.645 69.3714 158.437 69.463 158.216 69.4916C148.218 70.5998 112.376 76.0019 93.4719 97.9236C93.3658 98.0479 93.2354 98.149 93.0887 98.2209C92.9419 98.2927 92.7821 98.3338 92.6189 98.3414C88.7241 98.6595 84.9324 99.7542 81.4674 101.561C78.0024 103.368 74.9342 105.85 72.4437 108.861C72.4437 108.861 78.1185 87.6185 142.311 63.7877Z" fill="#FFB103"/>
<mask id="mask2_9_1114" style="mask-type:luminance" maskUnits="userSpaceOnUse" x="53" y="14" width="39" height="23">
<path d="M54.5663 20.4955C55.5384 18.7531 57.0068 17.3392 58.7847 16.4338C61.8252 14.8904 64.7671 15.9812 67.9758 15.8536C70.616 15.7549 73.0414 14.3391 75.6815 14.1651C78.7741 13.965 81.8777 14.3127 84.8494 15.1921C86.4789 15.6632 87.9361 16.5981 89.0437 17.8828C90.1512 19.1676 90.8611 20.7467 91.0871 22.4278C92.3288 31.7117 81.2229 33.8644 74.521 35.0075C71.6546 35.4949 68.7998 36.139 65.8928 36.168C58.7151 36.2666 51.5375 30.3655 53.7076 22.596C53.9095 21.8643 54.1978 21.1592 54.5663 20.4955Z" fill="white"/>
</mask>
<g mask="url(#mask2_9_1114)">
<path d="M54.5663 31.5261C55.5401 29.7849 57.008 28.3715 58.7847 27.4643C61.8252 25.9209 64.7671 27.0117 67.9758 26.8841C70.616 26.7912 73.0414 25.3696 75.6815 25.2014C78.7738 24.9994 81.8774 25.3451 84.8494 26.2226C86.4785 26.6944 87.9354 27.6295 89.0428 28.9141C90.1502 30.1987 90.8604 31.7774 91.0871 33.4583C92.3288 42.7422 81.2229 44.9007 74.521 46.038C71.6546 46.5312 68.7998 47.1985 65.8928 47.1985C58.7151 47.2914 51.5375 41.396 53.7076 33.6207C53.9099 32.891 54.1982 32.1878 54.5663 31.5261Z" fill="#FFB701"/>
</g>
<path d="M80.7528 126.495C80.9304 125.831 81.1533 125.179 81.4201 124.545C84.9654 116.271 104.003 113.521 103.609 125.561C103.469 129.704 100.017 132.773 96.6458 134.676C93.4665 136.435 89.9139 137.409 86.2826 137.52C79.9869 137.81 79.4589 131.253 80.7528 126.495Z" fill="#FD9F02"/>
<path d="M118.759 97.9585C118.892 103.053 123.221 106.372 128.124 106.227C133.027 106.082 136.486 102.56 138.116 98.1732C139.781 93.6879 140.338 86.3419 134.53 84.7463C130.468 83.6322 125.13 86.1853 122.026 88.75C120.407 90.0903 119.473 92.3069 119.043 94.5524C118.828 95.6745 118.733 96.8163 118.759 97.9585ZM133.137 95.005H133.033L133.196 94.9644C133.671 94.8193 133.648 94.8426 133.137 95.005Z" fill="#FD9F02"/>
<path d="M112.626 119.3C112.808 118.638 113.118 118.019 113.539 117.478C113.961 116.936 114.485 116.483 115.081 116.144C115.678 115.805 116.335 115.587 117.016 115.502C117.697 115.418 118.388 115.468 119.049 115.65L121.405 116.416C122.706 116.802 123.818 117.656 124.527 118.812C124.873 119.405 125.1 120.06 125.194 120.74C125.287 121.42 125.246 122.111 125.071 122.775C124.897 123.439 124.594 124.062 124.179 124.609C123.764 125.156 123.245 125.615 122.652 125.961C122.05 126.31 121.385 126.536 120.695 126.627C120.005 126.718 119.303 126.671 118.631 126.489L116.276 125.723C114.973 125.337 113.861 124.481 113.154 123.321C112.454 122.103 112.265 120.657 112.626 119.3Z" fill="#FD9F02"/>
<path d="M77.7936 20.4433C79.1107 20.4433 80.1784 19.8198 80.1784 19.0507C80.1784 18.2816 79.1107 17.6581 77.7936 17.6581C76.4765 17.6581 75.4088 18.2816 75.4088 19.0507C75.4088 19.8198 76.4765 20.4433 77.7936 20.4433Z" fill="#FAEE06"/>
<path d="M29.813 44.8137C30.8096 44.8137 31.6176 44.0058 31.6176 43.0091C31.6176 42.0125 30.8096 41.2046 29.813 41.2046C28.8164 41.2046 28.0084 42.0125 28.0084 43.0091C28.0084 44.0058 28.8164 44.8137 29.813 44.8137Z" fill="#FAEE06"/>
<path d="M59.8408 59.6274C60.1708 59.6274 60.4384 59.3598 60.4384 59.0298C60.4384 58.6997 60.1708 58.4321 59.8408 58.4321C59.5107 58.4321 59.2431 58.6997 59.2431 59.0298C59.2431 59.3598 59.5107 59.6274 59.8408 59.6274Z" fill="#FAEE06"/>
<path d="M108.872 43.0091C110.006 43.0091 110.926 42.0895 110.926 40.955C110.926 39.8206 110.006 38.901 108.872 38.901C107.737 38.901 106.818 39.8206 106.818 40.955C106.818 42.0895 107.737 43.0091 108.872 43.0091Z" fill="#FAEE06"/>
<path d="M131.6 100.169C132.481 100.169 133.196 98.9976 133.196 97.5523C133.196 96.107 132.481 94.9354 131.6 94.9354C130.719 94.9354 130.004 96.107 130.004 97.5523C130.004 98.9976 130.719 100.169 131.6 100.169Z" fill="#FAEE06"/>
<path d="M116.2 120.797C116.748 120.797 117.192 120.353 117.192 119.805C117.192 119.257 116.748 118.813 116.2 118.813C115.652 118.813 115.208 119.257 115.208 119.805C115.208 120.353 115.652 120.797 116.2 120.797Z" fill="#FAEE06"/>
<path d="M87.1646 133.765C88.1741 133.765 88.9924 132.947 88.9924 131.938C88.9924 130.928 88.1741 130.11 87.1646 130.11C86.1552 130.11 85.3369 130.928 85.3369 131.938C85.3369 132.947 86.1552 133.765 87.1646 133.765Z" fill="#FAEE06"/>
<path d="M13.4443 101.91C14.2134 101.91 14.8369 100.442 14.8369 98.6316C14.8369 96.8209 14.2134 95.3532 13.4443 95.3532C12.6752 95.3532 12.0517 96.8209 12.0517 98.6316C12.0517 100.442 12.6752 101.91 13.4443 101.91Z" fill="#FAEE06"/>
</svg>
