<svg width="210" height="212" viewBox="0 0 210 212" fill="none" xmlns="http://www.w3.org/2000/svg">
<path d="M79.836 207.846L16.6579 177.228C6.38109 172.256 0 162.971 0 153.02V91.7917C0 81.8332 6.38109 72.5551 16.6579 67.5758L79.8437 36.9657C85.0633 34.5057 90.7497 33.2312 96.5054 33.2312C102.261 33.2312 107.947 34.5057 113.167 36.9657L176.345 67.5758C186.622 72.5551 193.003 81.8332 193.003 91.7917V153.02C193.003 162.978 186.622 172.256 176.345 177.228L113.16 207.846C107.94 210.306 102.254 211.58 96.4978 211.58C90.7421 211.58 85.0557 210.306 79.836 207.846Z" fill="#FFE052"/>
<mask id="mask0_9_979" style="mask-type:luminance" maskUnits="userSpaceOnUse" x="0" y="33" width="194" height="179">
<path d="M79.836 207.846L16.6579 177.228C6.38109 172.256 0 162.971 0 153.02V91.7917C0 81.8332 6.38109 72.5551 16.6579 67.5758L79.8437 36.9657C85.0633 34.5057 90.7497 33.2312 96.5054 33.2312C102.261 33.2312 107.947 34.5057 113.167 36.9657L176.345 67.5758C186.622 72.5551 193.003 81.8332 193.003 91.7917V153.02C193.003 162.978 186.622 172.256 176.345 177.228L113.16 207.846C107.94 210.306 102.254 211.58 96.4978 211.58C90.7421 211.58 85.0557 210.306 79.836 207.846Z" fill="white"/>
</mask>
<g mask="url(#mask0_9_979)">
<path d="M193.003 74.0009C193.003 74.0009 209.074 93.9489 93.8028 124.667L96.494 226L211.826 170.725L193.003 74.0009Z" fill="#FFCF03"/>
</g>
<mask id="mask1_9_979" style="mask-type:luminance" maskUnits="userSpaceOnUse" x="0" y="33" width="194" height="179">
<path d="M79.836 207.846L16.6579 177.228C6.38109 172.256 0 162.971 0 153.02V91.7917C0 81.8332 6.38109 72.5551 16.6579 67.5758L79.8437 36.9657C85.0633 34.5057 90.7497 33.2312 96.5054 33.2312C102.261 33.2312 107.947 34.5057 113.167 36.9657L176.345 67.5758C186.622 72.5551 193.003 81.8332 193.003 91.7917V153.02C193.003 162.978 186.622 172.256 176.345 177.228L113.16 207.846C107.94 210.306 102.254 211.58 96.4978 211.58C90.7421 211.58 85.0557 210.306 79.836 207.846Z" fill="white"/>
</mask>
<g mask="url(#mask1_9_979)">
<path d="M96.494 218.322L93.8028 124.667C93.8028 124.667 36.0833 113.155 0.0304909 77.1864C-9.06466 68.1711 -19.1738 69.3928 -19.1738 69.3928L-9.56783 189.15L96.494 218.322Z" fill="#FFC001"/>
</g>
<path d="M71.6939 50.7282C72.9688 48.4047 74.8987 46.5201 77.2363 45.316C81.2312 43.2593 85.0964 44.7129 89.3124 44.5428C92.7812 44.4191 95.9679 42.5248 99.4367 42.3006C103.499 42.0354 107.577 42.496 111.482 43.6614C113.623 44.29 115.537 45.536 116.992 47.2478C118.447 48.9595 119.38 51.0632 119.678 53.3029C121.309 65.6738 106.717 68.55 97.912 70.0731C94.1458 70.7226 90.3949 71.6195 86.5754 71.6195C77.1448 71.7509 67.7142 63.8877 70.5655 53.5271C70.8316 52.5524 71.2104 51.6129 71.6939 50.7282Z" fill="#FDC200"/>
<path d="M12.1751 136.791C16.7494 130.273 28.1164 130.435 33.9333 135.492C36.1519 137.417 36.2891 139.976 37.5089 142.311C38.8583 144.894 40.9929 147.113 42.8455 149.448C47.9001 155.834 48.1822 164.362 38.439 167.478C26.18 171.398 13.4025 162.839 10.9248 152.911C9.79651 148.265 9.23997 141.012 12.1751 136.791Z" fill="#FD9F02"/>
<path d="M59.7169 130.729C61.205 129.417 62.8746 128.334 64.6724 127.513C65.1984 127.273 70.6799 126.105 70.6799 127.087C75.1551 128.355 79.7293 130.072 82.2223 133.644C85.1574 137.85 85.0126 143.386 80.7661 146.966C76.5197 150.546 70.2377 150.832 65.1451 148.736C61.3332 147.19 58.764 144.144 56.8428 141.005C54.5785 137.402 56.5302 133.574 59.7169 130.729Z" fill="#FD9F02"/>
<path d="M57.8262 173.826C58.5693 173.169 59.4042 172.627 60.3039 172.218C60.5708 172.094 63.3077 171.514 63.3077 172.001C65.5491 172.635 67.8362 173.493 69.0789 175.28C69.8431 176.265 70.1954 177.516 70.0599 178.762C69.9245 180.008 69.3122 181.151 68.3546 181.944C66.2886 183.684 63.0866 183.87 60.5403 182.826C58.7851 182.021 57.3313 180.666 56.393 178.96C55.2189 177.158 56.1947 175.249 57.8262 173.826Z" fill="#FD9F02"/>
<path d="M20.3936 69.7252C18.422 69.5166 16.4425 70.0384 14.8206 71.1943C13.7769 71.9906 12.9328 73.0251 12.3566 74.2139C11.7805 75.4027 11.4885 76.7124 11.5043 78.0369C11.5043 83.8976 16.0175 85.931 19.9743 86.5419C23.931 87.1527 28.3604 85.8615 30.0453 80.9518C31.692 76.1967 30.0453 71.4417 26.1648 69.5319C25.0746 68.983 24.4113 69.6711 23.3821 69.8799C22.6652 69.9997 21.9338 69.9997 21.2169 69.8799C20.9425 69.7871 20.668 69.7484 20.3936 69.7252ZM19.5016 75.8333C18.8841 75.7174 19.128 75.6091 19.5016 75.8333V75.8333ZM23.8853 79.6992C23.7557 79.6451 23.6337 79.591 23.5193 79.5291L23.8853 79.6992ZM19.3949 80.1167C19.3949 80.1167 19.4863 80.1786 19.6007 80.1941C18.5791 83.1708 19.0899 79.5137 19.3949 80.0781V80.1167Z" fill="#FDC100"/>
<path d="M165.131 70.2046L165.26 70.019C166.168 68.8438 167.197 67.7768 168.782 68.6582L170.658 69.7097C171.188 70.0273 171.572 70.5444 171.728 71.1483C171.884 71.7522 171.798 72.394 171.489 72.9339C171.133 73.4842 170.655 73.9414 170.091 74.2679C169.528 74.5945 168.897 74.7812 168.249 74.8127C167.681 74.8417 167.113 74.7439 166.586 74.5262C166.059 74.3084 165.586 73.976 165.199 73.5524C164.786 73.0997 164.55 72.5088 164.538 71.8917C164.525 71.2747 164.736 70.6744 165.131 70.2046Z" fill="#FFB701"/>
<path d="M164.887 80.1786C164.071 82.8693 164.612 86.2403 166.686 88.181C168.76 90.1217 171.42 89.248 173.913 88.5444C175.903 87.98 178.549 87.6707 180.073 86.1166C182.177 83.9749 181.308 81.4775 179.387 79.5755C177.779 78.0292 174.325 75.2844 171.939 75.7096C170.048 76.0498 168.348 76.2508 167.029 77.0936C165.958 77.8128 165.194 78.914 164.887 80.1786Z" fill="#FFC000"/>
<path opacity="0.4" d="M94.6185 149.904C94.6185 148.906 94.5652 147.917 94.4737 146.943C94.9463 146.463 95.4419 145.992 95.9984 145.52C108.082 134.448 121.415 124.863 135.718 116.966C142.091 113.51 148.759 110.643 155.639 108.4C161.223 106.437 166.912 104.795 172.678 103.482C178.64 102.245 184.754 101.719 190.869 101.109C191.227 101.07 192.675 100.142 193.041 100.134C193.003 100.734 193.003 101.336 193.041 101.936C193.041 102.044 194.101 103.072 193.041 102.616C193.041 102.825 191.936 102.578 191.943 102.786C191.963 103.501 192.044 104.213 192.187 104.913V105.531C191.57 105.647 190.952 105.771 190.335 105.91C172.526 109.907 155.372 115.961 138.996 122.642C130.283 126.239 121.927 130.671 114.044 135.878C109.294 138.971 105.658 142.744 102.235 146.602C99.4055 148.7 96.9245 151.242 94.8854 154.133C94.5482 154.484 94.2325 154.856 93.94 155.246C94.3038 153.486 94.5307 151.7 94.6185 149.904Z" fill="#FD9F02"/>
<path d="M206.581 110.379C199.537 112.698 187.331 121.296 188.688 153.839C188.683 154.459 188.504 155.065 188.172 155.585C187.84 156.105 187.368 156.519 186.813 156.777L101.953 203.222C99.0784 204.769 95.175 203.153 95.175 200.377V153.213C95.175 153.213 165.672 105.748 206.33 108.848C207.336 108.964 207.519 110.077 206.581 110.379Z" fill="#FFCF03"/>
<path d="M186.98 103.56C186.98 103.56 196.746 99.6936 208.693 107.619C209.76 108.33 209.265 109.714 207.877 109.845C194.741 111.067 147.649 117.028 122.811 141.198C122.506 141.485 122.107 141.65 121.69 141.662C118.557 141.809 105.284 143.053 95.175 153.259C95.1827 153.252 102.639 129.84 186.98 103.56Z" fill="#FFB103"/>
<mask id="mask2_9_979" style="mask-type:luminance" maskUnits="userSpaceOnUse" x="70" y="42" width="50" height="30">
<path d="M71.6939 50.7282C72.9688 48.4047 74.8987 46.5201 77.2363 45.316C81.2312 43.2593 85.0964 44.7129 89.3124 44.5428C92.7812 44.4191 95.9679 42.5248 99.4367 42.3006C103.499 42.0354 107.577 42.496 111.482 43.6614C113.623 44.29 115.537 45.536 116.992 47.2478C118.447 48.9595 119.38 51.0632 119.678 53.3029C121.309 65.6738 106.717 68.55 97.912 70.0731C94.1458 70.7226 90.3949 71.6195 86.5754 71.6195C77.1448 71.7509 67.7142 63.8877 70.5655 53.5271C70.8316 52.5524 71.2104 51.6129 71.6939 50.7282Z" fill="white"/>
</mask>
<g mask="url(#mask2_9_979)">
<path d="M71.6939 65.4263C72.971 63.1046 74.9003 61.2206 77.2363 60.0141C81.2312 57.9574 85.0964 59.411 89.3124 59.2409C92.7812 59.1172 95.9679 57.2229 99.4367 56.991C103.5 56.7244 107.578 57.1877 111.482 58.3595C113.628 58.9908 115.546 60.2426 117.001 61.9618C118.457 63.681 119.387 65.793 119.678 68.0397C121.309 80.4105 106.717 83.279 97.912 84.8022C94.1458 85.4517 90.3949 86.3485 86.5754 86.3485C77.1448 86.4723 67.7142 78.6168 70.5655 68.2562C70.8285 67.2705 71.2074 66.3204 71.6939 65.4263Z" fill="#FFB701"/>
</g>
<path d="M106.1 172.697C106.334 171.958 106.627 171.239 106.977 170.548C111.635 161.424 136.648 158.37 136.13 171.661C135.947 176.231 131.411 179.617 126.981 181.712C122.697 183.677 118.066 184.745 113.365 184.851C105.094 185.168 104.4 177.939 106.1 172.697Z" fill="#FD9F02"/>
<path d="M156.036 141.229C156.211 146.85 161.898 150.507 168.34 150.345C171.138 150.312 173.866 149.459 176.196 147.888C178.526 146.317 180.357 144.095 181.468 141.492C183.656 136.551 184.388 128.448 176.757 126.685C171.42 125.456 164.406 128.278 160.328 131.1C158.288 132.661 156.892 134.934 156.409 137.479C156.127 138.707 156.002 139.968 156.036 141.229ZM174.927 137.974H174.79L175.003 137.927C175.629 137.773 175.598 137.796 174.927 137.974Z" fill="#FD9F02"/>
<path d="M147.977 164.757C148.254 164 148.675 163.307 149.216 162.717C149.758 162.126 150.41 161.65 151.133 161.316C152.782 160.534 154.641 160.33 156.417 160.736L159.512 161.579C161.139 161.953 162.589 162.887 163.614 164.223C164.062 164.857 164.359 165.588 164.479 166.359C164.6 167.129 164.541 167.918 164.307 168.661C163.743 170.184 162.608 171.421 161.151 172.102C159.502 172.884 157.644 173.088 155.868 172.682L152.773 171.839C151.144 171.468 149.694 170.533 148.671 169.195C148.222 168.561 147.926 167.83 147.805 167.059C147.685 166.288 147.744 165.5 147.977 164.757Z" fill="#FD9F02"/>
<path d="M102.212 50.6586C103.942 50.6586 105.345 49.8278 105.345 48.803C105.345 47.7782 103.942 46.9474 102.212 46.9474C100.481 46.9474 99.0784 47.7782 99.0784 48.803C99.0784 49.8278 100.481 50.6586 102.212 50.6586Z" fill="#FAEE06"/>
<path d="M18.015 79.4673C18.836 79.4673 19.5016 78.6538 19.5016 77.6503C19.5016 76.6468 18.836 75.8333 18.015 75.8333C17.1939 75.8333 16.5283 76.6468 16.5283 77.6503C16.5283 78.6538 17.1939 79.4673 18.015 79.4673Z" fill="#FAEE06"/>
<path d="M166.625 72.1143C166.772 72.1143 166.892 71.9932 166.892 71.8437C166.892 71.6943 166.772 71.5731 166.625 71.5731C166.478 71.5731 166.358 71.6943 166.358 71.8437C166.358 71.9932 166.478 72.1143 166.625 72.1143Z" fill="#FAEE06"/>
<path d="M33.1786 89.3949C33.3849 89.3949 33.5522 89.2668 33.5522 89.1088C33.5522 88.9508 33.3849 88.8227 33.1786 88.8227C32.9723 88.8227 32.8051 88.9508 32.8051 89.1088C32.8051 89.2668 32.9723 89.3949 33.1786 89.3949Z" fill="#FAEE06"/>
<path d="M169.324 82.4053C169.968 82.4053 170.49 81.8757 170.49 81.2224C170.49 80.569 169.968 80.0394 169.324 80.0394C168.68 80.0394 168.157 80.569 168.157 81.2224C168.157 81.8757 168.68 82.4053 169.324 82.4053Z" fill="#FAEE06"/>
<path d="M172.907 143.672C174.065 143.672 175.003 142.381 175.003 140.788C175.003 139.195 174.065 137.904 172.907 137.904C171.749 137.904 170.81 139.195 170.81 140.788C170.81 142.381 171.749 143.672 172.907 143.672Z" fill="#FAEE06"/>
<path d="M152.673 166.411C153.393 166.411 153.977 165.923 153.977 165.321C153.977 164.719 153.393 164.231 152.673 164.231C151.953 164.231 151.37 164.719 151.37 165.321C151.37 165.923 151.953 166.411 152.673 166.411Z" fill="#FAEE06"/>
<path d="M114.524 180.715C115.85 180.715 116.926 179.811 116.926 178.697C116.926 177.582 115.85 176.679 114.524 176.679C113.198 176.679 112.123 177.582 112.123 178.697C112.123 179.811 113.198 180.715 114.524 180.715Z" fill="#FAEE06"/>
<path d="M17.6642 145.597C18.6748 145.597 19.4939 143.977 19.4939 141.979C19.4939 139.98 18.6748 138.36 17.6642 138.36C16.6537 138.36 15.8345 139.98 15.8345 141.979C15.8345 143.977 16.6537 145.597 17.6642 145.597Z" fill="#FAEE06"/>
<path d="M98.0873 114.16C131.898 114.16 159.306 100.036 159.306 82.6141C159.306 65.1919 131.898 51.0684 98.0873 51.0684C64.2771 51.0684 36.8685 65.1919 36.8685 82.6141C36.8685 100.036 64.2771 114.16 98.0873 114.16Z" fill="#FFC000"/>
<path d="M162.912 52.1122C159.863 33.4941 145.088 26.0638 128.979 20.7908C127.119 20.18 125.129 19.5846 123.025 19.0202L124.549 12.8812C127.546 0.943278 108.013 -4.63907 102.105 4.63907C100.694 7.92993 99.5793 11.3432 98.7735 14.8373C86.1409 13.8786 73.0128 14.8759 62.5987 19.6233C62.1078 17.3143 61.4191 15.0531 60.5403 12.8657C60.5403 12.8657 59.1756 -2.08758 42.2128 3.86589C26.0732 9.47144 33.2091 32.1565 33.941 34.3446C18.0531 61.8156 37.7529 92.9902 65.5338 104.325C91.6224 114.979 126.074 114.113 148.785 95.6035C161.807 84.9955 165.588 68.3103 162.912 52.1122Z" fill="#A77C4B"/>
<path d="M123.055 68.4495C121.098 67.8999 119.069 67.6651 117.04 67.7536C112.641 67.916 107.503 69.8489 106.298 74.6194C105.017 79.7224 111.322 80.8049 114.921 80.7662C118.107 80.7662 121.698 80.1013 124.405 78.2998C126.181 77.1168 127.805 74.7741 127.454 72.5087C127.103 70.2432 125.22 69.1144 123.055 68.4495Z" fill="#353535"/>
<path d="M97.1012 49.9463C97.4335 47.26 96.0264 44.8692 93.9584 44.6061C91.8904 44.343 89.9446 46.3073 89.6124 48.9935C89.2801 51.6798 90.6872 54.0706 92.7552 54.3337C94.8232 54.5968 96.769 52.6325 97.1012 49.9463Z" fill="#353535"/>
<path d="M102.832 52.8873C104.411 52.7754 105.582 51.0926 105.447 49.1289C105.311 47.1651 103.921 45.664 102.342 45.776C100.763 45.888 99.592 47.5707 99.7274 49.5345C99.8628 51.4982 101.253 52.9993 102.832 52.8873Z" fill="#353535"/>
<path d="M79.836 207.846L16.6579 177.228C6.38109 172.256 0 162.971 0 153.02V91.7917C0 81.8332 6.38109 72.5551 16.6579 67.5758L79.8437 36.9657C85.0633 34.5057 90.7497 33.2312 96.5054 33.2312C102.261 33.2312 107.947 34.5057 113.167 36.9657L176.345 67.5758C186.622 72.5551 193.003 81.8332 193.003 91.7917V153.02C193.003 162.978 186.622 172.256 176.345 177.228L113.16 207.846C107.94 210.306 102.254 211.58 96.4978 211.58C90.7421 211.58 85.0557 210.306 79.836 207.846Z" fill="url(#paint0_linear_9_979)"/>
<mask id="mask3_9_979" style="mask-type:luminance" maskUnits="userSpaceOnUse" x="0" y="33" width="194" height="179">
<path d="M79.836 207.846L16.6579 177.228C6.38109 172.256 0 162.971 0 153.02V91.7917C0 81.8332 6.38109 72.5551 16.6579 67.5758L79.8437 36.9657C85.0633 34.5057 90.7497 33.2312 96.5054 33.2312C102.261 33.2312 107.947 34.5057 113.167 36.9657L176.345 67.5758C186.622 72.5551 193.003 81.8332 193.003 91.7917V153.02C193.003 162.978 186.622 172.256 176.345 177.228L113.16 207.846C107.94 210.306 102.254 211.58 96.4978 211.58C90.7421 211.58 85.0557 210.306 79.836 207.846Z" fill="white"/>
</mask>
<g mask="url(#mask3_9_979)">
<path d="M193.003 74.0009C193.003 74.0009 209.074 93.9489 93.8028 124.667L96.494 226L211.826 170.725L193.003 74.0009Z" fill="#FFCF03"/>
</g>
<mask id="mask4_9_979" style="mask-type:luminance" maskUnits="userSpaceOnUse" x="0" y="33" width="194" height="179">
<path d="M79.836 207.846L16.6579 177.228C6.38109 172.256 0 162.971 0 153.02V91.7917C0 81.8332 6.38109 72.5551 16.6579 67.5758L79.8437 36.9657C85.0633 34.5057 90.7497 33.2312 96.5054 33.2312C102.261 33.2312 107.947 34.5057 113.167 36.9657L176.345 67.5758C186.622 72.5551 193.003 81.8332 193.003 91.7917V153.02C193.003 162.978 186.622 172.256 176.345 177.228L113.16 207.846C107.94 210.306 102.254 211.58 96.4978 211.58C90.7421 211.58 85.0557 210.306 79.836 207.846Z" fill="white"/>
</mask>
<g mask="url(#mask4_9_979)">
<path d="M96.494 218.322L93.8028 124.667C93.8028 124.667 36.0833 113.155 0.0304909 77.1864C-9.06466 68.1711 -19.1738 69.3928 -19.1738 69.3928L-9.56783 189.15L96.494 218.322Z" fill="url(#paint1_linear_9_979)"/>
</g>
<path d="M71.6939 50.7282C72.9688 48.4047 74.8987 46.5201 77.2363 45.316C81.2312 43.2593 85.0964 44.7129 89.3124 44.5428C92.7812 44.4191 95.9679 42.5248 99.4367 42.3006C103.499 42.0354 107.577 42.496 111.482 43.6614C113.623 44.29 115.537 45.536 116.992 47.2478C118.447 48.9595 119.38 51.0632 119.678 53.3029C121.309 65.6738 106.717 68.55 97.912 70.0731C94.1458 70.7226 90.3949 71.6195 86.5754 71.6195C77.1448 71.7509 67.7142 63.8877 70.5655 53.5271C70.8316 52.5524 71.2104 51.6129 71.6939 50.7282Z" fill="#FDC200"/>
<path d="M12.1751 136.791C16.7494 130.273 28.1164 130.435 33.9333 135.492C36.1519 137.417 36.2891 139.976 37.5089 142.311C38.8583 144.894 40.9929 147.113 42.8455 149.448C47.9001 155.834 48.1822 164.362 38.439 167.478C26.18 171.398 13.4025 162.839 10.9248 152.911C9.79651 148.265 9.23997 141.012 12.1751 136.791Z" fill="#FD9F02"/>
<path d="M59.7169 130.729C61.205 129.417 62.8746 128.334 64.6724 127.513C65.1984 127.273 70.6799 126.105 70.6799 127.087C75.1551 128.355 79.7293 130.072 82.2223 133.644C85.1574 137.85 85.0126 143.386 80.7661 146.966C76.5197 150.546 70.2377 150.832 65.1451 148.736C61.3332 147.19 58.764 144.144 56.8428 141.005C54.5785 137.402 56.5302 133.574 59.7169 130.729Z" fill="#FD9F02"/>
<path d="M57.8262 173.826C58.5693 173.169 59.4042 172.627 60.3039 172.218C60.5708 172.094 63.3077 171.514 63.3077 172.001C65.5491 172.635 67.8362 173.493 69.0789 175.28C69.8431 176.265 70.1954 177.516 70.0599 178.762C69.9245 180.008 69.3122 181.151 68.3546 181.944C66.2886 183.684 63.0866 183.87 60.5403 182.826C58.7851 182.021 57.3313 180.666 56.393 178.96C55.2189 177.158 56.1947 175.249 57.8262 173.826Z" fill="#FD9F02"/>
<path d="M20.3936 69.7252C18.422 69.5166 16.4425 70.0384 14.8206 71.1943C13.7769 71.9906 12.9328 73.0251 12.3566 74.2139C11.7805 75.4027 11.4885 76.7124 11.5043 78.0369C11.5043 83.8976 16.0175 85.931 19.9743 86.5419C23.931 87.1527 28.3604 85.8615 30.0453 80.9518C31.692 76.1967 30.0453 71.4417 26.1648 69.5319C25.0746 68.983 24.4113 69.6711 23.3821 69.8799C22.6652 69.9997 21.9338 69.9997 21.2169 69.8799C20.9425 69.7871 20.668 69.7484 20.3936 69.7252ZM19.5016 75.8333C18.8841 75.7174 19.128 75.6091 19.5016 75.8333V75.8333ZM23.8853 79.6992C23.7557 79.6451 23.6337 79.591 23.5193 79.5291L23.8853 79.6992ZM19.3949 80.1167C19.3949 80.1167 19.4863 80.1786 19.6007 80.1941C18.5791 83.1708 19.0899 79.5137 19.3949 80.0781V80.1167Z" fill="#FDC100"/>
<path d="M165.131 70.2046L165.26 70.019C166.168 68.8438 167.197 67.7768 168.782 68.6582L170.658 69.7097C171.188 70.0273 171.572 70.5444 171.728 71.1483C171.884 71.7522 171.798 72.394 171.489 72.9339C171.133 73.4842 170.655 73.9414 170.091 74.2679C169.528 74.5945 168.897 74.7812 168.249 74.8127C167.681 74.8417 167.113 74.7439 166.586 74.5262C166.059 74.3084 165.586 73.976 165.199 73.5524C164.786 73.0997 164.55 72.5088 164.538 71.8917C164.525 71.2747 164.736 70.6744 165.131 70.2046Z" fill="#FFB701"/>
<path d="M164.887 80.1786C164.071 82.8693 164.612 86.2403 166.686 88.181C168.76 90.1217 171.42 89.248 173.913 88.5444C175.903 87.98 178.549 87.6707 180.073 86.1166C182.177 83.9749 181.308 81.4775 179.387 79.5755C177.779 78.0292 174.325 75.2844 171.939 75.7096C170.048 76.0498 168.348 76.2508 167.029 77.0936C165.958 77.8128 165.194 78.914 164.887 80.1786Z" fill="#FFC000"/>
<path opacity="0.4" d="M94.6185 149.904C94.6185 148.906 94.5652 147.917 94.4737 146.943C94.9463 146.463 95.4419 145.992 95.9984 145.52C108.082 134.448 121.415 124.863 135.718 116.966C142.091 113.51 148.759 110.643 155.639 108.4C161.223 106.437 166.912 104.795 172.678 103.482C178.64 102.245 184.754 101.719 190.869 101.109C191.227 101.07 192.675 100.142 193.041 100.134C193.003 100.734 193.003 101.336 193.041 101.936C193.041 102.044 194.101 103.072 193.041 102.616C193.041 102.825 191.936 102.578 191.943 102.786C191.963 103.501 192.044 104.213 192.187 104.913V105.531C191.57 105.647 190.952 105.771 190.335 105.91C172.526 109.907 155.372 115.961 138.996 122.642C130.283 126.239 121.927 130.671 114.044 135.878C109.294 138.971 105.658 142.744 102.235 146.602C99.4055 148.7 96.9245 151.242 94.8854 154.133C94.5482 154.484 94.2325 154.856 93.94 155.246C94.3038 153.486 94.5307 151.7 94.6185 149.904Z" fill="#FD9F02"/>
<path d="M206.581 110.379C199.537 112.698 187.331 121.296 188.688 153.839C188.683 154.459 188.504 155.065 188.172 155.585C187.84 156.105 187.368 156.519 186.813 156.777L101.953 203.222C99.0784 204.769 95.175 203.153 95.175 200.377V153.213C95.175 153.213 165.672 105.748 206.33 108.848C207.336 108.964 207.519 110.077 206.581 110.379Z" fill="#FFCF03"/>
<path d="M186.98 103.56C186.98 103.56 196.746 99.6936 208.693 107.619C209.76 108.33 209.265 109.714 207.877 109.845C194.741 111.067 147.649 117.028 122.811 141.198C122.506 141.485 122.107 141.65 121.69 141.662C118.557 141.809 105.284 143.053 95.175 153.259C95.1827 153.252 102.639 129.84 186.98 103.56Z" fill="#FFB103"/>
<mask id="mask5_9_979" style="mask-type:luminance" maskUnits="userSpaceOnUse" x="70" y="42" width="50" height="30">
<path d="M71.6939 50.7282C72.9688 48.4047 74.8987 46.5201 77.2363 45.316C81.2312 43.2593 85.0964 44.7129 89.3124 44.5428C92.7812 44.4191 95.9679 42.5248 99.4367 42.3006C103.499 42.0354 107.577 42.496 111.482 43.6614C113.623 44.29 115.537 45.536 116.992 47.2478C118.447 48.9595 119.38 51.0632 119.678 53.3029C121.309 65.6738 106.717 68.55 97.912 70.0731C94.1458 70.7226 90.3949 71.6195 86.5754 71.6195C77.1448 71.7509 67.7142 63.8877 70.5655 53.5271C70.8316 52.5524 71.2104 51.6129 71.6939 50.7282Z" fill="white"/>
</mask>
<g mask="url(#mask5_9_979)">
<path d="M71.6939 65.4263C72.971 63.1046 74.9003 61.2206 77.2363 60.0141C81.2312 57.9574 85.0964 59.411 89.3124 59.2409C92.7812 59.1172 95.9679 57.2229 99.4367 56.991C103.5 56.7244 107.578 57.1877 111.482 58.3595C113.628 58.9908 115.546 60.2426 117.001 61.9618C118.457 63.681 119.387 65.793 119.678 68.0397C121.309 80.4105 106.717 83.279 97.912 84.8022C94.1458 85.4517 90.3949 86.3485 86.5754 86.3485C77.1448 86.4723 67.7142 78.6168 70.5655 68.2562C70.8285 67.2705 71.2074 66.3204 71.6939 65.4263Z" fill="#FFB701"/>
</g>
<path d="M106.1 172.697C106.334 171.958 106.627 171.239 106.977 170.548C111.635 161.424 136.648 158.37 136.13 171.661C135.947 176.231 131.411 179.617 126.981 181.712C122.697 183.677 118.066 184.745 113.365 184.851C105.094 185.168 104.4 177.939 106.1 172.697Z" fill="#FD9F02"/>
<path d="M156.036 141.229C156.211 146.85 161.898 150.507 168.34 150.345C171.138 150.312 173.866 149.459 176.196 147.888C178.526 146.317 180.357 144.095 181.468 141.492C183.656 136.551 184.388 128.448 176.757 126.685C171.42 125.456 164.406 128.278 160.328 131.1C158.288 132.661 156.892 134.934 156.409 137.479C156.127 138.707 156.002 139.968 156.036 141.229ZM174.927 137.974H174.79L175.003 137.927C175.629 137.773 175.598 137.796 174.927 137.974Z" fill="#FD9F02"/>
<path d="M147.977 164.757C148.254 164 148.675 163.307 149.216 162.717C149.758 162.126 150.41 161.65 151.133 161.316C152.782 160.534 154.641 160.33 156.417 160.736L159.512 161.579C161.139 161.953 162.589 162.887 163.614 164.223C164.062 164.857 164.359 165.588 164.479 166.359C164.6 167.129 164.541 167.918 164.307 168.661C163.743 170.184 162.608 171.421 161.151 172.102C159.502 172.884 157.644 173.088 155.868 172.682L152.773 171.839C151.144 171.468 149.694 170.533 148.671 169.195C148.222 168.561 147.926 167.83 147.805 167.059C147.685 166.288 147.744 165.5 147.977 164.757Z" fill="#FD9F02"/>
<path d="M102.212 50.6586C103.942 50.6586 105.345 49.8278 105.345 48.803C105.345 47.7782 103.942 46.9474 102.212 46.9474C100.481 46.9474 99.0784 47.7782 99.0784 48.803C99.0784 49.8278 100.481 50.6586 102.212 50.6586Z" fill="#FAEE06"/>
<path d="M18.015 79.4673C18.836 79.4673 19.5016 78.6538 19.5016 77.6503C19.5016 76.6468 18.836 75.8333 18.015 75.8333C17.1939 75.8333 16.5283 76.6468 16.5283 77.6503C16.5283 78.6538 17.1939 79.4673 18.015 79.4673Z" fill="#FAEE06"/>
<path d="M166.625 72.1143C166.772 72.1143 166.892 71.9932 166.892 71.8437C166.892 71.6943 166.772 71.5731 166.625 71.5731C166.478 71.5731 166.358 71.6943 166.358 71.8437C166.358 71.9932 166.478 72.1143 166.625 72.1143Z" fill="#FAEE06"/>
<path d="M33.1786 89.3949C33.3849 89.3949 33.5522 89.2668 33.5522 89.1088C33.5522 88.9508 33.3849 88.8227 33.1786 88.8227C32.9723 88.8227 32.8051 88.9508 32.8051 89.1088C32.8051 89.2668 32.9723 89.3949 33.1786 89.3949Z" fill="#FAEE06"/>
<path d="M169.324 82.4053C169.968 82.4053 170.49 81.8757 170.49 81.2224C170.49 80.569 169.968 80.0394 169.324 80.0394C168.68 80.0394 168.157 80.569 168.157 81.2224C168.157 81.8757 168.68 82.4053 169.324 82.4053Z" fill="#FAEE06"/>
<path d="M172.907 143.672C174.065 143.672 175.003 142.381 175.003 140.788C175.003 139.195 174.065 137.904 172.907 137.904C171.749 137.904 170.81 139.195 170.81 140.788C170.81 142.381 171.749 143.672 172.907 143.672Z" fill="#FAEE06"/>
<path d="M152.673 166.411C153.393 166.411 153.977 165.923 153.977 165.321C153.977 164.719 153.393 164.231 152.673 164.231C151.953 164.231 151.37 164.719 151.37 165.321C151.37 165.923 151.953 166.411 152.673 166.411Z" fill="#FAEE06"/>
<path d="M114.524 180.715C115.85 180.715 116.926 179.811 116.926 178.697C116.926 177.582 115.85 176.679 114.524 176.679C113.198 176.679 112.123 177.582 112.123 178.697C112.123 179.811 113.198 180.715 114.524 180.715Z" fill="#FAEE06"/>
<path d="M17.6642 145.597C18.6748 145.597 19.4939 143.977 19.4939 141.979C19.4939 139.98 18.6748 138.36 17.6642 138.36C16.6537 138.36 15.8345 139.98 15.8345 141.979C15.8345 143.977 16.6537 145.597 17.6642 145.597Z" fill="#FAEE06"/>
<path d="M98.0873 114.16C131.898 114.16 159.306 100.036 159.306 82.6141C159.306 65.1919 131.898 51.0684 98.0873 51.0684C64.2771 51.0684 36.8685 65.1919 36.8685 82.6141C36.8685 100.036 64.2771 114.16 98.0873 114.16Z" fill="#FFC000"/>
<path d="M162.912 52.1122C159.863 33.4941 145.088 26.0638 128.979 20.7908C127.119 20.18 125.129 19.5846 123.025 19.0202L124.549 12.8811C127.546 0.943278 108.013 -4.63907 102.105 4.63907C100.694 7.92993 99.5793 11.3432 98.7735 14.8373C86.1409 13.8786 73.0128 14.8759 62.5987 19.6233C62.1078 17.3143 61.4191 15.0531 60.5403 12.8657C60.5403 12.8657 59.1756 -2.08758 42.2128 3.86589C26.0732 9.47143 33.2091 32.1565 33.941 34.3446C18.0531 61.8156 37.7529 92.9901 65.5338 104.325C91.6224 114.979 126.074 114.113 148.785 95.6035C161.807 84.9955 165.588 68.3103 162.912 52.1122Z" fill="url(#paint2_radial_9_979)"/>
<path d="M162.912 52.1122C159.863 33.4941 145.088 26.0638 128.979 20.7908C127.119 20.18 125.129 19.5846 123.025 19.0202L124.549 12.8811C127.546 0.943278 108.013 -4.63907 102.105 4.63907C100.694 7.92993 99.5793 11.3432 98.7735 14.8373C86.1409 13.8786 73.0128 14.8759 62.5987 19.6233C62.1078 17.3143 61.4191 15.0531 60.5403 12.8657C60.5403 12.8657 59.1756 -2.08758 42.2128 3.86589C26.0732 9.47143 33.2091 32.1565 33.941 34.3446C18.0531 61.8156 37.7529 92.9901 65.5338 104.325C91.6224 114.979 126.074 114.113 148.785 95.6035C161.807 84.9955 165.588 68.3103 162.912 52.1122Z" fill="url(#paint3_radial_9_979)" fill-opacity="0.4"/>
<path d="M123.055 68.4495C121.098 67.8999 119.069 67.6651 117.04 67.7536C112.641 67.916 107.503 69.8489 106.298 74.6194C105.017 79.7224 111.322 80.8049 114.921 80.7662C118.107 80.7662 121.698 80.1013 124.405 78.2998C126.181 77.1168 127.805 74.7741 127.454 72.5087C127.103 70.2432 125.22 69.1144 123.055 68.4495Z" fill="#353535"/>
<path d="M97.1012 49.9463C97.4335 47.26 96.0264 44.8692 93.9584 44.6061C91.8904 44.343 89.9446 46.3073 89.6124 48.9935C89.2801 51.6798 90.6872 54.0706 92.7552 54.3337C94.8232 54.5968 96.769 52.6325 97.1012 49.9463Z" fill="#353535"/>
<path d="M102.832 52.8873C104.411 52.7754 105.582 51.0926 105.447 49.1289C105.311 47.1651 103.921 45.664 102.342 45.776C100.763 45.888 99.592 47.5707 99.7274 49.5345C99.8628 51.4982 101.253 52.9993 102.832 52.8873Z" fill="#353535"/>
<defs>
<linearGradient id="paint0_linear_9_979" x1="96.8262" y1="105" x2="156.826" y2="237.5" gradientUnits="userSpaceOnUse">
<stop stop-color="#FFE052"/>
<stop offset="0.698995" stop-color="#FFC400"/>
</linearGradient>
<linearGradient id="paint1_linear_9_979" x1="-19.1738" y1="125.659" x2="96.494" y2="162.001" gradientUnits="userSpaceOnUse">
<stop stop-color="#FFD556"/>
<stop offset="1" stop-color="#FFC001"/>
</linearGradient>
<radialGradient id="paint2_radial_9_979" cx="0" cy="0" r="1" gradientUnits="userSpaceOnUse" gradientTransform="translate(95.8262 44) rotate(90) scale(76 117.184)">
<stop offset="0.716346" stop-color="#C7C7C7"/>
<stop offset="1" stop-color="#7E7E7E"/>
</radialGradient>
<radialGradient id="paint3_radial_9_979" cx="0" cy="0" r="1" gradientUnits="userSpaceOnUse" gradientTransform="translate(95.8262 44) rotate(-86.4237) scale(48.0937 74.1552)">
<stop offset="0.716346" stop-color="#A0A0A0"/>
<stop offset="1" stop-color="#7E7E7E"/>
</radialGradient>
</defs>
</svg>
