<svg width="18" height="18" viewBox="0 0 18 18" fill="none" xmlns="http://www.w3.org/2000/svg">
<path d="M5.25 9.75V15.75C5.25 15.9625 5.17813 16.1406 5.03438 16.2844C4.89062 16.4281 4.7125 16.5 4.5 16.5C4.2875 16.5 4.10938 16.4281 3.96563 16.2844C3.82188 16.1406 3.75 15.9625 3.75 15.75V3C3.75 2.7875 3.82188 2.60938 3.96563 2.46563C4.10938 2.32188 4.2875 2.25 4.5 2.25H14.6438C14.7812 2.25 14.9031 2.28125 15.0094 2.34375C15.1156 2.40625 15.2 2.4875 15.2625 2.5875C15.325 2.6875 15.3656 2.79688 15.3844 2.91563C15.4031 3.03438 15.3875 3.15625 15.3375 3.28125L14.25 6L15.3375 8.71875C15.3875 8.84375 15.4031 8.96563 15.3844 9.08438C15.3656 9.20313 15.325 9.3125 15.2625 9.4125C15.2 9.5125 15.1156 9.59375 15.0094 9.65625C14.9031 9.71875 14.7812 9.75 14.6438 9.75H5.25ZM5.25 8.25H13.5375L12.8625 6.5625C12.7875 6.3875 12.75 6.2 12.75 6C12.75 5.8 12.7875 5.6125 12.8625 5.4375L13.5375 3.75H5.25V8.25Z" fill="#A4A4A4"/>
</svg>
